<?xml version="1.0" encoding="UTF-8" standalone="no"?>
<svg width="31px" height="25px" viewBox="0 0 31 25" version="1.1" xmlns="http://www.w3.org/2000/svg" xmlns:xlink="http://www.w3.org/1999/xlink">
    <!-- Generator: Sketch 3.8.1 (29687) - http://www.bohemiancoding.com/sketch -->
    <title>Icon</title>
    <desc>Created with Sketch.</desc>
    <defs></defs>
    <g id="E-Check-Wireframes" stroke="none" stroke-width="1" fill="none" fill-rule="evenodd">
        <g id="Kiosk" transform="translate(-750.000000, -1776.000000)">
            <g id="01---Search" transform="translate(141.000000, 1082.000000)">
                <g id="Group-11" transform="translate(274.000000, 422.000000)">
                    <g id="Phone-Pad" transform="translate(5.821510, 5.843137)">
                        <g id="Keys">
                            <g id="Backspace" transform="translate(277.000397, 236.361257)">
                                <g id="Icon" transform="translate(52.851564, 30.002512)">
                                    <path d="M15.9316479,12.402994 L13.2189459,15.1156959 C12.8560577,15.4785841 12.8557528,16.0580518 13.2129696,16.4152686 C13.5726768,16.7749758 14.1520248,16.7698097 14.5125423,16.4092922 L17.2252442,13.6965903 L19.9379461,16.4092922 C20.3008343,16.7721804 20.8803021,16.7724854 21.2375188,16.4152686 C21.597226,16.0555614 21.5920599,15.4762133 21.2315425,15.1156959 L18.5188405,12.402994 L21.3520348,9.56979967 C21.714923,9.20691147 21.715228,8.62744372 21.3580112,8.27022695 C20.998304,7.91051974 20.4189559,7.9156859 20.0584385,8.27620332 L17.2252442,11.1093976 L14.3920499,8.27620332 C14.0291617,7.91331513 13.4496939,7.91301019 13.0924772,8.27022695 C12.73277,8.62993417 12.7379361,9.20928224 13.0984535,9.56979967 L15.9316479,12.402994 Z" id="Cross" fill="#000000"></path>
                                    <path d="M1.42378218,13.101751 C1.09392856,12.6551417 1.10575054,11.9363107 1.44513582,11.5026517 L9.82652937,0.793093284 L28.8265294,0.793093284 L28.8265294,23.7930933 L9.32012016,23.7930933 L1.42378218,13.101751 Z" id="Path-119" stroke="#000000" stroke-width="2"></path>
                                </g>
                            </g>
                        </g>
                    </g>
                </g>
            </g>
        </g>
    </g>
</svg>