<?xml version="1.0" standalone="no"?>
<!DOCTYPE svg PUBLIC "-//W3C//DTD SVG 20010904//EN"
 "http://www.w3.org/TR/2001/REC-SVG-20010904/DTD/svg10.dtd">
<svg version="1.0" xmlns="http://www.w3.org/2000/svg"
 width="300.000000pt" height="300.000000pt" viewBox="0 0 300.000000 300.000000"
 preserveAspectRatio="xMidYMid meet">
<metadata>
Created by potrace 1.11, written by Peter Selinger 2001-2013
</metadata>
<g transform="translate(0.000000,300.000000) scale(0.100000,-0.100000)"
fill="#000000" stroke="none">
<path d="M1285 2984 c-166 -24 -360 -88 -487 -160 -33 -19 -62 -34 -65 -34 -3
0 -42 -26 -87 -57 -251 -176 -444 -424 -552 -710 -26 -69 -60 -193 -69 -251
-3 -20 -9 -62 -14 -92 -16 -98 -6 -354 18 -470 81 -386 291 -711 601 -928 114
-80 113 -80 218 -132 105 -52 228 -93 362 -121 82 -17 141 -22 270 -23 217 -1
329 15 505 75 374 128 681 399 860 757 40 82 97 233 109 294 3 12 13 59 22
103 21 100 24 395 5 505 -63 361 -249 684 -528 917 -176 146 -428 268 -638
309 -11 2 -45 9 -75 15 -84 17 -351 18 -455 3z m895 -799 l155 -155 -263 -263
-262 -262 267 -267 268 -268 -158 -157 -157 -158 -268 268 -267 267 -263 -262
-262 -263 -158 158 -157 157 263 263 262 262 -259 259 -258 258 153 154 c84
85 157 154 161 154 4 0 123 -115 263 -255 l255 -255 260 260 c143 143 262 260
265 260 3 0 75 -70 160 -155z"/>
<path d="M122 2877 l-22 -23 35 -34 c19 -19 35 -38 35 -43 0 -5 -16 -24 -36
-44 l-36 -35 23 -24 23 -24 41 40 41 40 39 -40 39 -40 23 22 23 22 -40 41 -40
41 35 34 c40 39 43 50 15 75 -19 17 -20 16 -58 -23 l-39 -40 -39 39 -40 40
-22 -24z"/>
</g>
</svg>
