<?xml version="1.0" encoding="UTF-8" standalone="no"?>
<svg width="45px" height="45px" viewBox="0 0 45 45" version="1.1" xmlns="http://www.w3.org/2000/svg" xmlns:xlink="http://www.w3.org/1999/xlink">
    <!-- Generator: Sketch 3.8.1 (29687) - http://www.bohemiancoding.com/sketch -->
    <title>screwhead</title>
    <desc>Created with Sketch.</desc>
    <defs></defs>
    <g id="Page-1" stroke="none" stroke-width="1" fill="none" fill-rule="evenodd">
        <g id="screwhead">
            <g id="Page-1">
                <g id="screwhead">
                    <path d="M22.4141221,0 C10.0370611,0 0,10.034313 0,22.4194466 C0,34.8020038 10.0370611,44.8442176 22.4141221,44.8442176 C34.7939313,44.8442176 44.8388931,34.8018321 44.8388931,22.4194466 C44.8388931,10.034313 34.7939313,0 22.4141221,0 L22.4141221,0 L22.4141221,0 L22.4141221,0 Z M22.3335687,27.0300573 L14.4784924,34.8932061 L9.7875,30.1913931 L17.6372519,22.3363168 L9.91082061,14.6098855 L14.6045611,9.90274809 L22.3335687,17.6370802 L30.1860687,9.78458015 L34.8851336,14.483645 L27.0407061,22.336145 L35.0541412,30.3576527 L30.3525,35.0596374 L22.3335687,27.0300573 Z" id="Shape" fill="#B05C30"></path>
                    <polygon id="Shape-path-Copy" fill="#FFFFFF" points="22.3335687 27.0300573 14.4784924 34.8932061 9.7875 30.1913931 17.6372519 22.3363168 9.91082061 14.6098855 14.6045611 9.90274809 22.3335687 17.6370802 30.1860687 9.78458015 34.8851336 14.483645 27.0407061 22.336145 35.0541412 30.3576527 30.3525 35.0596374"></polygon>
                </g>
            </g>
        </g>
    </g>
</svg>